<mxfile host="app.diagrams.net" modified="2023-07-26T05:06:21.051Z" agent="Mozilla/5.0 (Macintosh; Intel Mac OS X 10_15_7) AppleWebKit/605.1.15 (KHTML, like Gecko) Version/16.2 Safari/605.1.15" etag="EJhZnsbTWN9p9Pc_k7Sy" version="21.6.5" type="github">
  <diagram id="C5RBs43oDa-KdzZeNtuy" name="Page-1">
    <mxGraphModel dx="1480" dy="764" grid="1" gridSize="10" guides="1" tooltips="1" connect="1" arrows="1" fold="1" page="1" pageScale="1" pageWidth="827" pageHeight="1169" math="0" shadow="0">
      <root>
        <mxCell id="WIyWlLk6GJQsqaUBKTNV-0" />
        <mxCell id="WIyWlLk6GJQsqaUBKTNV-1" parent="WIyWlLk6GJQsqaUBKTNV-0" />
        <mxCell id="0dQdqgoq3wedCONLdR0S-1" value="" style="rounded=1;whiteSpace=wrap;html=1;direction=south;" vertex="1" parent="WIyWlLk6GJQsqaUBKTNV-1">
          <mxGeometry x="330" y="100" width="140" height="50" as="geometry" />
        </mxCell>
        <mxCell id="0dQdqgoq3wedCONLdR0S-2" value="Etherwall" style="text;html=1;strokeColor=none;fillColor=none;align=center;verticalAlign=middle;whiteSpace=wrap;rounded=0;" vertex="1" parent="WIyWlLk6GJQsqaUBKTNV-1">
          <mxGeometry x="369" y="110" width="60" height="30" as="geometry" />
        </mxCell>
        <mxCell id="0dQdqgoq3wedCONLdR0S-3" value="" style="endArrow=classic;html=1;rounded=0;" edge="1" parent="WIyWlLk6GJQsqaUBKTNV-1">
          <mxGeometry width="50" height="50" relative="1" as="geometry">
            <mxPoint x="279" y="180" as="sourcePoint" />
            <mxPoint x="279" y="200" as="targetPoint" />
          </mxGeometry>
        </mxCell>
        <mxCell id="0dQdqgoq3wedCONLdR0S-34" style="edgeStyle=orthogonalEdgeStyle;rounded=0;orthogonalLoop=1;jettySize=auto;html=1;entryX=0.5;entryY=0;entryDx=0;entryDy=0;" edge="1" parent="WIyWlLk6GJQsqaUBKTNV-1" source="0dQdqgoq3wedCONLdR0S-4" target="0dQdqgoq3wedCONLdR0S-32">
          <mxGeometry relative="1" as="geometry" />
        </mxCell>
        <mxCell id="0dQdqgoq3wedCONLdR0S-4" value="" style="rounded=0;whiteSpace=wrap;html=1;" vertex="1" parent="WIyWlLk6GJQsqaUBKTNV-1">
          <mxGeometry x="280" y="280" width="240" height="80" as="geometry" />
        </mxCell>
        <mxCell id="0dQdqgoq3wedCONLdR0S-5" value="Scrypt" style="text;html=1;strokeColor=none;fillColor=none;align=center;verticalAlign=middle;whiteSpace=wrap;rounded=0;" vertex="1" parent="WIyWlLk6GJQsqaUBKTNV-1">
          <mxGeometry x="299" y="280" width="50" height="30" as="geometry" />
        </mxCell>
        <mxCell id="0dQdqgoq3wedCONLdR0S-6" value="" style="rounded=0;whiteSpace=wrap;html=1;" vertex="1" parent="WIyWlLk6GJQsqaUBKTNV-1">
          <mxGeometry x="290" y="310" width="220" height="30" as="geometry" />
        </mxCell>
        <mxCell id="0dQdqgoq3wedCONLdR0S-7" value="Salt" style="text;html=1;strokeColor=none;fillColor=none;align=center;verticalAlign=middle;whiteSpace=wrap;rounded=0;" vertex="1" parent="WIyWlLk6GJQsqaUBKTNV-1">
          <mxGeometry x="279" y="310" width="60" height="30" as="geometry" />
        </mxCell>
        <mxCell id="0dQdqgoq3wedCONLdR0S-8" value="password" style="text;html=1;strokeColor=none;fillColor=none;align=center;verticalAlign=middle;whiteSpace=wrap;rounded=0;" vertex="1" parent="WIyWlLk6GJQsqaUBKTNV-1">
          <mxGeometry x="330" y="310" width="60" height="30" as="geometry" />
        </mxCell>
        <mxCell id="0dQdqgoq3wedCONLdR0S-11" value="" style="endArrow=none;html=1;rounded=0;" edge="1" parent="WIyWlLk6GJQsqaUBKTNV-1">
          <mxGeometry width="50" height="50" relative="1" as="geometry">
            <mxPoint x="323.66" y="310" as="sourcePoint" />
            <mxPoint x="323.66" y="340" as="targetPoint" />
          </mxGeometry>
        </mxCell>
        <mxCell id="0dQdqgoq3wedCONLdR0S-12" value="" style="endArrow=none;html=1;rounded=0;" edge="1" parent="WIyWlLk6GJQsqaUBKTNV-1">
          <mxGeometry width="50" height="50" relative="1" as="geometry">
            <mxPoint x="390" y="310" as="sourcePoint" />
            <mxPoint x="390" y="340" as="targetPoint" />
          </mxGeometry>
        </mxCell>
        <mxCell id="0dQdqgoq3wedCONLdR0S-13" value="n, p, r" style="text;html=1;strokeColor=none;fillColor=none;align=center;verticalAlign=middle;whiteSpace=wrap;rounded=0;" vertex="1" parent="WIyWlLk6GJQsqaUBKTNV-1">
          <mxGeometry x="441" y="310" width="59" height="30" as="geometry" />
        </mxCell>
        <mxCell id="0dQdqgoq3wedCONLdR0S-14" value="" style="endArrow=none;html=1;rounded=0;" edge="1" parent="WIyWlLk6GJQsqaUBKTNV-1">
          <mxGeometry width="50" height="50" relative="1" as="geometry">
            <mxPoint x="279" y="180" as="sourcePoint" />
            <mxPoint x="519" y="180" as="targetPoint" />
          </mxGeometry>
        </mxCell>
        <mxCell id="0dQdqgoq3wedCONLdR0S-15" value="" style="endArrow=classic;html=1;rounded=0;" edge="1" parent="WIyWlLk6GJQsqaUBKTNV-1">
          <mxGeometry width="50" height="50" relative="1" as="geometry">
            <mxPoint x="519" y="180" as="sourcePoint" />
            <mxPoint x="519" y="200" as="targetPoint" />
          </mxGeometry>
        </mxCell>
        <mxCell id="0dQdqgoq3wedCONLdR0S-16" value="" style="endArrow=none;html=1;rounded=0;" edge="1" parent="WIyWlLk6GJQsqaUBKTNV-1">
          <mxGeometry width="50" height="50" relative="1" as="geometry">
            <mxPoint x="399" y="180" as="sourcePoint" />
            <mxPoint x="399" y="150" as="targetPoint" />
          </mxGeometry>
        </mxCell>
        <mxCell id="0dQdqgoq3wedCONLdR0S-17" value="" style="rounded=0;whiteSpace=wrap;html=1;" vertex="1" parent="WIyWlLk6GJQsqaUBKTNV-1">
          <mxGeometry x="299" y="470" width="200" height="60" as="geometry" />
        </mxCell>
        <mxCell id="0dQdqgoq3wedCONLdR0S-18" value="&lt;font style=&quot;font-size: 18px;&quot;&gt;AES-128-CTR&lt;/font&gt;" style="text;html=1;strokeColor=none;fillColor=none;align=center;verticalAlign=middle;whiteSpace=wrap;rounded=0;" vertex="1" parent="WIyWlLk6GJQsqaUBKTNV-1">
          <mxGeometry x="304" y="483.75" width="190" height="30" as="geometry" />
        </mxCell>
        <mxCell id="0dQdqgoq3wedCONLdR0S-19" value="Password generator" style="rounded=0;whiteSpace=wrap;html=1;" vertex="1" parent="WIyWlLk6GJQsqaUBKTNV-1">
          <mxGeometry x="440" y="200" width="200" height="50" as="geometry" />
        </mxCell>
        <mxCell id="0dQdqgoq3wedCONLdR0S-20" value="Json file Parsing" style="rounded=0;whiteSpace=wrap;html=1;" vertex="1" parent="WIyWlLk6GJQsqaUBKTNV-1">
          <mxGeometry x="160" y="200" width="200" height="50" as="geometry" />
        </mxCell>
        <mxCell id="0dQdqgoq3wedCONLdR0S-44" style="edgeStyle=orthogonalEdgeStyle;rounded=0;orthogonalLoop=1;jettySize=auto;html=1;entryX=0.5;entryY=0;entryDx=0;entryDy=0;" edge="1" parent="WIyWlLk6GJQsqaUBKTNV-1" source="0dQdqgoq3wedCONLdR0S-32" target="0dQdqgoq3wedCONLdR0S-17">
          <mxGeometry relative="1" as="geometry" />
        </mxCell>
        <mxCell id="0dQdqgoq3wedCONLdR0S-32" value="" style="shape=parallelogram;perimeter=parallelogramPerimeter;whiteSpace=wrap;html=1;fixedSize=1;" vertex="1" parent="WIyWlLk6GJQsqaUBKTNV-1">
          <mxGeometry x="299" y="400" width="200" height="40" as="geometry" />
        </mxCell>
        <mxCell id="0dQdqgoq3wedCONLdR0S-33" value="AES Key" style="text;html=1;strokeColor=none;fillColor=none;align=center;verticalAlign=middle;whiteSpace=wrap;rounded=0;" vertex="1" parent="WIyWlLk6GJQsqaUBKTNV-1">
          <mxGeometry x="369" y="405" width="60" height="30" as="geometry" />
        </mxCell>
        <mxCell id="0dQdqgoq3wedCONLdR0S-70" value="" style="endArrow=classic;html=1;rounded=0;" edge="1" parent="WIyWlLk6GJQsqaUBKTNV-1">
          <mxGeometry relative="1" as="geometry">
            <mxPoint x="239" y="250" as="sourcePoint" />
            <mxPoint x="280" y="320" as="targetPoint" />
            <Array as="points">
              <mxPoint x="239" y="320" />
            </Array>
          </mxGeometry>
        </mxCell>
        <mxCell id="0dQdqgoq3wedCONLdR0S-71" value="Salt, mac" style="edgeLabel;resizable=0;html=1;align=center;verticalAlign=middle;" connectable="0" vertex="1" parent="0dQdqgoq3wedCONLdR0S-70">
          <mxGeometry relative="1" as="geometry">
            <mxPoint y="-35" as="offset" />
          </mxGeometry>
        </mxCell>
        <mxCell id="0dQdqgoq3wedCONLdR0S-72" value="" style="endArrow=classic;html=1;rounded=0;entryX=1;entryY=0.5;entryDx=0;entryDy=0;exitX=0.596;exitY=1.039;exitDx=0;exitDy=0;exitPerimeter=0;" edge="1" parent="WIyWlLk6GJQsqaUBKTNV-1" source="0dQdqgoq3wedCONLdR0S-19" target="0dQdqgoq3wedCONLdR0S-4">
          <mxGeometry relative="1" as="geometry">
            <mxPoint x="549" y="319.52000000000004" as="sourcePoint" />
            <mxPoint x="649" y="319.52000000000004" as="targetPoint" />
            <Array as="points">
              <mxPoint x="559" y="320" />
            </Array>
          </mxGeometry>
        </mxCell>
        <mxCell id="0dQdqgoq3wedCONLdR0S-73" value="Password" style="edgeLabel;resizable=0;html=1;align=center;verticalAlign=middle;" connectable="0" vertex="1" parent="0dQdqgoq3wedCONLdR0S-72">
          <mxGeometry relative="1" as="geometry">
            <mxPoint y="-35" as="offset" />
          </mxGeometry>
        </mxCell>
        <mxCell id="0dQdqgoq3wedCONLdR0S-92" style="edgeStyle=orthogonalEdgeStyle;rounded=0;orthogonalLoop=1;jettySize=auto;html=1;exitX=0.5;exitY=1;exitDx=0;exitDy=0;" edge="1" parent="WIyWlLk6GJQsqaUBKTNV-1" source="0dQdqgoq3wedCONLdR0S-17" target="0dQdqgoq3wedCONLdR0S-78">
          <mxGeometry relative="1" as="geometry">
            <mxPoint x="399.0000000000001" y="600" as="sourcePoint" />
          </mxGeometry>
        </mxCell>
        <mxCell id="0dQdqgoq3wedCONLdR0S-78" value="" style="rhombus;whiteSpace=wrap;html=1;" vertex="1" parent="WIyWlLk6GJQsqaUBKTNV-1">
          <mxGeometry x="299" y="570" width="201" height="110" as="geometry" />
        </mxCell>
        <mxCell id="0dQdqgoq3wedCONLdR0S-80" value="" style="endArrow=classic;html=1;rounded=0;exitX=0.183;exitY=1.015;exitDx=0;exitDy=0;exitPerimeter=0;entryX=0;entryY=0.5;entryDx=0;entryDy=0;" edge="1" parent="WIyWlLk6GJQsqaUBKTNV-1" source="0dQdqgoq3wedCONLdR0S-20" target="0dQdqgoq3wedCONLdR0S-17">
          <mxGeometry relative="1" as="geometry">
            <mxPoint x="180" y="405" as="sourcePoint" />
            <mxPoint x="197" y="500" as="targetPoint" />
            <Array as="points">
              <mxPoint x="200" y="500" />
            </Array>
          </mxGeometry>
        </mxCell>
        <mxCell id="0dQdqgoq3wedCONLdR0S-81" value="IV.&lt;br&gt;Encrypted Private Key" style="edgeLabel;resizable=0;html=1;align=center;verticalAlign=middle;" connectable="0" vertex="1" parent="0dQdqgoq3wedCONLdR0S-80">
          <mxGeometry relative="1" as="geometry">
            <mxPoint y="-45" as="offset" />
          </mxGeometry>
        </mxCell>
        <mxCell id="0dQdqgoq3wedCONLdR0S-88" value="" style="endArrow=classic;html=1;rounded=0;exitX=0.008;exitY=0.417;exitDx=0;exitDy=0;entryX=0;entryY=0.5;entryDx=0;entryDy=0;exitPerimeter=0;" edge="1" parent="WIyWlLk6GJQsqaUBKTNV-1" source="0dQdqgoq3wedCONLdR0S-20" target="0dQdqgoq3wedCONLdR0S-78">
          <mxGeometry relative="1" as="geometry">
            <mxPoint x="120" y="530" as="sourcePoint" />
            <mxPoint x="100" y="225" as="targetPoint" />
            <Array as="points">
              <mxPoint x="120" y="220" />
              <mxPoint x="120" y="625" />
            </Array>
          </mxGeometry>
        </mxCell>
        <mxCell id="0dQdqgoq3wedCONLdR0S-89" value="Public Key" style="edgeLabel;resizable=0;html=1;align=center;verticalAlign=middle;" connectable="0" vertex="1" parent="0dQdqgoq3wedCONLdR0S-88">
          <mxGeometry relative="1" as="geometry" />
        </mxCell>
        <mxCell id="0dQdqgoq3wedCONLdR0S-93" value="" style="endArrow=classic;html=1;rounded=0;entryX=1;entryY=0.5;entryDx=0;entryDy=0;exitX=1;exitY=0.5;exitDx=0;exitDy=0;" edge="1" parent="WIyWlLk6GJQsqaUBKTNV-1" source="0dQdqgoq3wedCONLdR0S-78" target="0dQdqgoq3wedCONLdR0S-19">
          <mxGeometry relative="1" as="geometry">
            <mxPoint x="499" y="694.41" as="sourcePoint" />
            <mxPoint x="680" y="225" as="targetPoint" />
            <Array as="points">
              <mxPoint x="680" y="625" />
              <mxPoint x="680" y="225" />
            </Array>
          </mxGeometry>
        </mxCell>
        <mxCell id="0dQdqgoq3wedCONLdR0S-94" value="False" style="edgeLabel;resizable=0;html=1;align=center;verticalAlign=middle;" connectable="0" vertex="1" parent="0dQdqgoq3wedCONLdR0S-93">
          <mxGeometry relative="1" as="geometry">
            <mxPoint x="-110" y="130" as="offset" />
          </mxGeometry>
        </mxCell>
        <mxCell id="0dQdqgoq3wedCONLdR0S-97" value="" style="rounded=1;whiteSpace=wrap;html=1;" vertex="1" parent="WIyWlLk6GJQsqaUBKTNV-1">
          <mxGeometry x="339" y="730" width="120" height="60" as="geometry" />
        </mxCell>
        <mxCell id="0dQdqgoq3wedCONLdR0S-99" value="&lt;font style=&quot;font-size: 18px;&quot;&gt;Success&lt;br&gt;End&lt;/font&gt;" style="text;html=1;strokeColor=none;fillColor=none;align=center;verticalAlign=middle;whiteSpace=wrap;rounded=0;" vertex="1" parent="WIyWlLk6GJQsqaUBKTNV-1">
          <mxGeometry x="369" y="745" width="60" height="30" as="geometry" />
        </mxCell>
        <mxCell id="0dQdqgoq3wedCONLdR0S-101" value="" style="endArrow=classic;html=1;rounded=0;entryX=0.5;entryY=0;entryDx=0;entryDy=0;exitX=0.5;exitY=1;exitDx=0;exitDy=0;" edge="1" parent="WIyWlLk6GJQsqaUBKTNV-1" source="0dQdqgoq3wedCONLdR0S-78">
          <mxGeometry relative="1" as="geometry">
            <mxPoint x="360" y="690" as="sourcePoint" />
            <mxPoint x="399" y="730" as="targetPoint" />
          </mxGeometry>
        </mxCell>
        <mxCell id="0dQdqgoq3wedCONLdR0S-102" value="True" style="edgeLabel;resizable=0;html=1;align=center;verticalAlign=middle;" connectable="0" vertex="1" parent="0dQdqgoq3wedCONLdR0S-101">
          <mxGeometry relative="1" as="geometry">
            <mxPoint y="-5" as="offset" />
          </mxGeometry>
        </mxCell>
        <mxCell id="0dQdqgoq3wedCONLdR0S-105" value="AES Key" style="text;html=1;strokeColor=none;fillColor=none;align=center;verticalAlign=middle;whiteSpace=wrap;rounded=0;" vertex="1" parent="WIyWlLk6GJQsqaUBKTNV-1">
          <mxGeometry x="370" y="610" width="60" height="30" as="geometry" />
        </mxCell>
        <mxCell id="0dQdqgoq3wedCONLdR0S-109" value="mac" style="text;html=1;strokeColor=none;fillColor=none;align=center;verticalAlign=middle;whiteSpace=wrap;rounded=0;" vertex="1" parent="WIyWlLk6GJQsqaUBKTNV-1">
          <mxGeometry x="380" y="310" width="60" height="30" as="geometry" />
        </mxCell>
        <mxCell id="0dQdqgoq3wedCONLdR0S-110" value="" style="endArrow=none;html=1;rounded=0;" edge="1" parent="WIyWlLk6GJQsqaUBKTNV-1">
          <mxGeometry width="50" height="50" relative="1" as="geometry">
            <mxPoint x="430.00000000000006" y="310" as="sourcePoint" />
            <mxPoint x="430.00000000000006" y="340" as="targetPoint" />
          </mxGeometry>
        </mxCell>
      </root>
    </mxGraphModel>
  </diagram>
</mxfile>
